<svg width="1280" height="720" xmlns="http://www.w3.org/2000/svg" xmlns:xlink="http://www.w3.org/1999/xlink" overflow="hidden"><defs><clipPath id="clip0"><rect x="0" y="0" width="1280" height="720"/></clipPath></defs><g clip-path="url(#clip0)"><rect x="0" y="0" width="1280" height="720" fill="#FFFFFF"/><path d="M178.5 677.557 178.5 603.557 361.5 603.557 361.5 677.557 178.5 677.557Z" stroke="#000000" stroke-width="1.23559" stroke-miterlimit="8" fill="#FFFFFF" fill-rule="evenodd"/><text font-family="Verdana,Verdana_MSFontService,sans-serif" font-weight="400" font-size="12" transform="translate(180.095 616)">GeospatialDDCoordLocation</text><path d="M178.5 621.733 361.5 621.733" stroke="#000000" stroke-width="1.23559" stroke-miterlimit="8" fill="none" fill-rule="evenodd"/><text font-family="Verdana,Verdana_MSFontService,sans-serif" font-weight="400" font-size="12" transform="translate(215.353 635)">elevation:string ?<tspan font-size="12" x="4.32986" y="18">latitude:decimal</tspan><tspan font-size="12" x="-1.85564" y="37">longitude:decimal</tspan></text><path d="M430.5 668.557 430.5 594.557 597.5 594.557 597.5 668.557 430.5 668.557Z" stroke="#000000" stroke-width="1.23559" stroke-miterlimit="8" fill="#FFFFFF" fill-rule="evenodd"/><text font-family="Verdana,Verdana_MSFontService,sans-serif" font-weight="400" font-size="12" transform="translate(468.589 607)">SamplingSite</text><path d="M430.5 612.547 597.5 612.547" stroke="#000000" stroke-width="1.23559" stroke-miterlimit="8" fill="none" fill-rule="evenodd"/><text font-family="Verdana,Verdana_MSFontService,sans-serif" font-weight="400" font-size="12" transform="translate(474.774 626)">label:string<tspan font-size="12" x="-26.598" y="18">description:string ?</tspan><tspan font-size="12" x="-27.8351" y="37">placeName:string *</tspan></text><path d="M370.526 615.5C387.136 616.808 409.696 616.833 426.527 615.573" stroke="#000000" stroke-width="1.23559" stroke-miterlimit="8" fill="none" fill-rule="evenodd"/><path d="M364.527 614.327 370.237 620.5 367.455 614.663 370.383 615 370.383 615 370.383 615 367.455 614.663 370.527 609.5 364.527 614.327 364.527 614.327Z" stroke="#000000" stroke-width="1.23559" stroke-miterlimit="8" fill-rule="evenodd"/><path d="M426.527 614.902 430.153 619.5 433.527 614.097 429.902 609.499 426.527 614.902Z" stroke="#000000" stroke-width="1.23559" stroke-miterlimit="8" fill-rule="evenodd"/><text font-family="Verdana,Verdana_MSFontService,sans-serif" font-weight="400" font-size="10" transform="translate(361.858 595)">location 0..1</text><path d="M481.5 466.558 481.5 336.558 711.501 336.558 711.501 466.558 481.5 466.558Z" stroke="#000000" stroke-width="1.23559" stroke-miterlimit="8" fill="#FFFFFF" fill-rule="evenodd"/><text font-family="Verdana,Verdana_MSFontService,sans-serif" font-weight="400" font-size="12" transform="translate(545.302 349)">SamplingEvent</text><path d="M481.5 354.593 711.501 354.593" stroke="#000000" stroke-width="1.23559" stroke-miterlimit="8" fill="none" fill-rule="evenodd"/><text font-family="Verdana,Verdana_MSFontService,sans-serif" font-weight="400" font-size="12" transform="translate(567.57 368)">id:string<tspan font-size="12" x="-10.5155" y="18">label:string</tspan><tspan font-size="12" x="-37.1134" y="37">description:string ?</tspan><tspan font-size="12" x="-73.6083" y="56">hasFeatureOfInterest:string ?</tspan><tspan font-size="12" x="-45.7733" y="74">responsibility:string *</tspan><tspan font-size="12" x="-32.7835" y="93">resultTime:date ?</tspan></text><path d="M566.869 475.184C559.402 510.525 550.772 551.376 544.314 581.944" stroke="#000000" stroke-width="1.23559" stroke-miterlimit="8" fill="none" fill-rule="evenodd"/><path d="M567.407 474.383 571.831 470.134 569.54 464.286 565.116 468.535 567.407 474.383Z" stroke="#000000" stroke-width="1.23559" stroke-miterlimit="8" fill-rule="evenodd"/><path d="M541.984 591.317 547.539 583.803 542.873 587.11 543.762 582.904 543.762 582.904 543.762 582.904 542.873 587.11 539.984 582.004 541.984 591.317 541.984 591.317Z" stroke="#000000" stroke-width="1.23559" stroke-miterlimit="8" fill-rule="evenodd"/><text font-family="Verdana,Verdana_MSFontService,sans-serif" font-weight="400" font-size="10" transform="translate(451.555 568)">samplingSite<tspan font-size="10" x="67.5" y="0">0..1</tspan></text><path d="M652.5 223.558 652.5 0.557668 978.501 0.557668 978.501 223.558 652.5 223.558Z" stroke="#000000" stroke-width="1.23559" stroke-miterlimit="8" fill="#FFFFFF" fill-rule="evenodd"/><text font-family="Verdana,Verdana_MSFontService,sans-serif" font-weight="400" font-size="12" transform="translate(738.292 13)">PhysicalSampleRecord</text><path d="M652.5 19.5466 978.501 19.5466" stroke="#000000" stroke-width="1.23559" stroke-miterlimit="8" fill="none" fill-rule="evenodd"/><text font-family="Verdana,Verdana_MSFontService,sans-serif" font-weight="400" font-size="12" transform="translate(786.539 32)">id:string<tspan font-size="12" x="-49.4845" y="19">sampleidentifier:string</tspan><tspan font-size="12" x="-10.5154" y="37">label:string</tspan><tspan font-size="12" x="-37.1133" y="56">description:string ?</tspan><tspan font-size="12" x="-59.3814" y="74">samplingPurpose:string ?</tspan><tspan font-size="12" x="-32.7835" y="93">registrant:string ?</tspan><tspan font-size="12" x="-32.1649" y="111">keywords:string *</tspan><tspan font-size="12" x="-74.2267" y="130">informalClassification:string *</tspan><tspan font-size="12" x="-106.392" y="148">hasContextCategory:contextcategory *</tspan><tspan font-size="12" x="-95.2577" y="167">hasMaterialCategory:materialtype *</tspan><tspan font-size="12" x="-120" y="186">hasSpecimenCategory:specimencategory *</tspan></text><path d="M731.5 223.558C705.059 258.033 676.529 295.23 652.5 326.558" stroke="#000000" stroke-width="1.23559" stroke-miterlimit="8" fill="none" fill-rule="evenodd"/><path d="M645.5 336.557 657.5 330.202 649.274 331.717 653.048 326.878 653.048 326.878 653.048 326.878 649.274 331.717 648.596 323.557 645.5 336.557 645.5 336.557Z" stroke="#000000" stroke-width="1.23559" stroke-miterlimit="8" fill-rule="evenodd"/><text font-family="Verdana,Verdana_MSFontService,sans-serif" font-weight="400" font-size="10" transform="translate(570.768 315)">producedBy<tspan font-size="10" x="62.1666" y="0">0..1</tspan></text><path d="M663.5 671.558 663.5 578.558 828.5 578.558 828.5 671.558 663.5 671.558Z" stroke="#000000" stroke-width="1.23559" stroke-miterlimit="8" fill="#FFFFFF" fill-rule="evenodd"/><text font-family="Verdana,Verdana_MSFontService,sans-serif" font-weight="400" font-size="12" transform="translate(691.281 592)">SampleRelation</text><path d="M663.5 597.547 828.5 597.547" stroke="#000000" stroke-width="1.23559" stroke-miterlimit="8" fill="none" fill-rule="evenodd"/><text font-family="Verdana,Verdana_MSFontService,sans-serif" font-weight="400" font-size="12" transform="translate(700.56 610)">label:string<tspan font-size="12" x="74.6667" y="0">?</tspan><tspan font-size="12" x="-20.4124" y="19">description:string ?</tspan><tspan font-size="12" x="-17.3196" y="38">relationship:string</tspan><tspan font-size="12" x="2.47424" y="56">target:string</tspan></text><path d="M786.5 238.558C780.075 270.156 773.827 304.105 769.3 335.782 757.985 414.959 751.661 507.222 748.5 565.557" stroke="#000000" stroke-width="1.23559" stroke-miterlimit="8" fill="none" fill-rule="evenodd"/><path d="M786.952 238.56 793.501 232.093 790.051 223.559 783.5 230.027 786.952 238.56Z" stroke="#000000" stroke-width="1.23559" stroke-miterlimit="8" fill-rule="evenodd"/><path d="M748.358 578.559 754.5 566.16 748.679 572.21 749 565.86 749 565.86 749 565.86 748.679 572.21 743.5 565.559 748.358 578.559 748.358 578.559Z" stroke="#000000" stroke-width="1.23559" stroke-miterlimit="8" fill-rule="evenodd"/><text font-family="Verdana,Verdana_MSFontService,sans-serif" font-weight="400" font-size="10" transform="translate(647.671 558)">relatedResource<tspan font-size="10" x="83.3333" y="0">0..*</tspan></text><path d="M780.5 456.558 780.5 345.557 989.5 345.557 989.5 456.558 780.5 456.558Z" stroke="#000000" stroke-width="1.23559" stroke-miterlimit="8" fill="#FFFFFF" fill-rule="evenodd"/><text font-family="Verdana,Verdana_MSFontService,sans-serif" font-weight="400" font-size="12" transform="translate(855.199 359)">Curation</text><path d="M780.5 364.547 989.5 364.547" stroke="#000000" stroke-width="1.23559" stroke-miterlimit="8" fill="none" fill-rule="evenodd"/><text font-family="Verdana,Verdana_MSFontService,sans-serif" font-weight="400" font-size="12" transform="translate(839.117 377)">label:string ?<tspan font-size="12" x="-20.4124" y="19">description:string ?</tspan><tspan font-size="12" x="-44.5361" y="37">accessConstraints:string ?</tspan><tspan font-size="12" x="-38.969" y="56">curationLocation:string ?</tspan><tspan font-size="12" x="-29.0721" y="74">responsibility:string *</tspan></text><path d="M837.5 238.557C845.159 271.244 853.72 305.235 861.501 333.557" stroke="#000000" stroke-width="1.23559" stroke-miterlimit="8" fill="none" fill-rule="evenodd"/><path d="M837.24 237.556 840.501 229.473 833.762 223.556 830.5 231.637 837.24 237.556Z" stroke="#000000" stroke-width="1.23559" stroke-miterlimit="8" fill-rule="evenodd"/><path d="M864.605 345.556 866.5 332.556 863.052 339.781 861.5 334.007 861.5 334.007 861.5 334.007 863.052 339.781 856.5 335.459 864.605 345.556 864.605 345.556Z" stroke="#000000" stroke-width="1.23559" stroke-miterlimit="8" fill-rule="evenodd"/><text font-family="Verdana,Verdana_MSFontService,sans-serif" font-weight="400" font-size="10" transform="translate(818.439 330)">curation 0..1<tspan fill="#778899" font-size="10" x="87.5399" y="378">CREATED WITH YUML</tspan></text></g></svg>